<svg width="34" height="33" viewBox="0 0 34 33" fill="none" xmlns="http://www.w3.org/2000/svg">
<g clip-path="url(#clip0_155_75)">
<path d="M27.5956 5.15625C27.5956 4.33574 27.9204 3.54883 28.4986 2.96864C29.0768 2.38845 29.861 2.0625 30.6787 2.0625C31.4964 2.0625 32.2805 2.38845 32.8587 2.96864C33.4369 3.54883 33.7617 4.33574 33.7617 5.15625V27.8438C33.7617 28.6643 33.4369 29.4512 32.8587 30.0314C32.2805 30.6116 31.4964 30.9375 30.6787 30.9375C29.861 30.9375 29.0768 30.6116 28.4986 30.0314C27.9204 29.4512 27.5956 28.6643 27.5956 27.8438V27.4024C23.1519 24.8428 18.367 23.6012 13.3889 23.1062L14.2213 28.6997C14.2772 28.9977 14.2669 29.3044 14.1912 29.5979C14.1155 29.8915 13.9763 30.1647 13.7833 30.3981C13.5904 30.6314 13.3486 30.8193 13.075 30.9482C12.8015 31.077 12.503 31.1438 12.2009 31.1438H11.0745C10.675 31.1437 10.2841 31.0268 9.94976 30.8074C9.61539 30.588 9.35199 30.2756 9.19178 29.9083L5.38934 22.7102C5.25095 22.7079 5.11255 22.7059 4.97415 22.704C3.88555 22.6932 2.84503 22.2524 2.07793 21.4773C1.31084 20.7021 0.878922 19.6549 0.875732 18.5625L0.875732 14.4375C0.879401 13.345 1.31059 12.2976 2.07641 11.521C2.84223 10.7445 3.88139 10.3008 4.97004 10.2857C6.67194 10.2625 8.37334 10.211 10.0735 10.131C16.328 9.81338 22.71 8.37994 27.5956 5.59556V5.15625ZM29.651 5.15625V27.8438C29.651 28.1173 29.7593 28.3796 29.952 28.573C30.1447 28.7664 30.4061 28.875 30.6787 28.875C30.9512 28.875 31.2126 28.7664 31.4054 28.573C31.5981 28.3796 31.7064 28.1173 31.7064 27.8438V5.15625C31.7064 4.88275 31.5981 4.62044 31.4054 4.42705C31.2126 4.23365 30.9512 4.125 30.6787 4.125C30.4061 4.125 30.1447 4.23365 29.952 4.42705C29.7593 4.62044 29.651 4.88275 29.651 5.15625ZM27.5956 7.94062C22.7778 10.4259 16.8892 11.7397 11.1526 12.1337V20.8643C11.5226 20.8849 11.8905 20.9096 12.2563 20.9385C17.5346 21.3283 22.7244 22.473 27.5956 25.0491V7.94062ZM9.09723 20.7591V12.2409C7.73288 12.291 6.36803 12.3268 5.00293 12.3482C4.45367 12.3547 3.92889 12.5772 3.54144 12.9679C3.154 13.3586 2.93484 13.8863 2.93111 14.4375V18.5625C2.93111 19.6969 3.85192 20.6291 4.99882 20.6436C6.3655 20.6595 7.73182 20.698 9.09723 20.7591V20.7591ZM7.74685 22.77L11.054 29.0338L11.0745 29.0833H12.2009L12.1967 29.0544L11.2862 22.9371C10.1072 22.8657 8.9273 22.8093 7.74685 22.7679V22.77Z" fill="white"/>
</g>
<defs>
<clipPath id="clip0_155_75">
<rect width="32.886" height="33" fill="white" transform="translate(0.875732)"/>
</clipPath>
</defs>
</svg>
